<?xml version="1.0" encoding="UTF-8"?><svg id="_レイヤー_1" xmlns="http://www.w3.org/2000/svg" viewBox="0 0 1920 524"><text/><path d="m1850.94,208.42c-1.62-36.12-29.29-66.67-66.67-66.67-9.69,0-19.27,2.38-28.02,6.57,16.18-12.34,27.12-31.48,26.18-52.44-1.62-36.12-29.29-66.67-66.67-66.67-34.87,0-68.28,30.66-66.67,66.67,1.62,36.12,29.29,66.67,66.67,66.67,9.69,0,19.27-2.38,28.02-6.57-16.18,12.34-27.12,31.48-26.18,52.44,1.62,36.12,29.29,66.67,66.67,66.67,34.87,0,68.28-30.66,66.67-66.67Z"/><g><path d="m68.89,301.63l188.28-67.53c24.31-28.6,49.25-59.56,74.54-92.88v-19.13H83.46v24.35h121.3c-34.93,45.77-79.89,97.85-135.87,155.2Z"/><path d="m374.75,270.34c-20.72-17.13-47.65-26.57-80.11-28.03l-219.72,78.81,82.46,20.96c19.13-18.69,39.56-39.56,60.43-63.04,21.74-7.83,44.78-12.17,67.82-12.17,28.69,0,52.17,7.39,70,21.74,19.56,15.65,29.13,37.39,29.13,65.65,0,68.26-50.87,102.6-152.6,102.6-42.17,0-77.82-5.22-107.39-15.22l-6.96,25.21c33.48,9.56,72.6,14.35,117.38,14.35,118.25,0,176.95-42.17,176.95-126.95,0-35.65-12.61-63.48-37.39-83.91Z"/></g><g><path d="m677.34,163.39c-16.09,9.56-32.17,22.61-48.26,37.82l73.91,51.74c43.47-48.26,80.43-76.08,110.43-83.04l6.09-22.17c-21.3-6.09-55.65-9.13-103.47-9.13-41.3,0-100.87,2.17-178.69,6.52l1.74,24.35c55.21-3.04,101.3-5.22,138.25-6.09Z"/><path d="m839.5,433.37c-32.61,14.78-82.17,22.17-147.38,22.17-24.35,0-47.39-1.3-70-3.91-7.56-14.81-12.37-28.57-14.61-41.42l-57.99,52.94c39.67,11.16,88.2,16.31,145.64,16.31,65.65,0,116.95-7.39,153.03-22.17l-8.69-23.91Z"/><path d="m606.72,383.35c2.77-21.85,14.27-42.81,34.53-63.45l-74.34-46.52c-34.35,32.17-51.3,68.69-51.3,109.12,0,22.28,5.11,45.65,15.97,69.44l75.14-68.6Z"/></g><g><path d="m1221.21,130.78c-48.26-13.48-109.99-20.87-186.51-22.61l-1.74,24.35c68.69.44,129.56,8.7,181.73,23.48l6.52-25.21Z"/><path d="m1246.86,280.34c-20.43-17.39-47.82-26.09-80.86-26.09-6.06,0-12.05.2-17.96.61l-166.21,95.96,83.3,5.6c3.04-16.52,5.65-34.78,8.26-55.21,27.39-14.78,58.26-22.17,92.6-22.17,25.21,0,46.08,6.52,62.17,19.13,16.96,14.35,25.22,33.48,25.22,58.69,0,65.65-52.17,98.69-156.08,98.69-37.83,0-77.82-3.91-119.56-11.3l-3.48,26.08c43.04,6.96,84.34,10.43,123.91,10.43,121.73,0,182.6-40.87,182.6-123.91,0-32.61-11.3-58.26-33.91-76.52Z"/><path d="m1080.45,270.36c-1.34.56-2.68,1.12-4.01,1.71,3.04-34.78,4.78-68.26,4.78-100.86l-103.47-2.61c-1.62,62.19-6.24,118.37-14.2,169.25l116.91-67.5Z"/></g><g><path d="m1520.43,477.69l31.36-20.89c-44.45-.89-66.68-17.83-66.68-50.82,0-18.69,8.69-32.61,25.21-42.17,13.48-7.83,30.43-11.74,50.43-11.74,5.22,0,10.43.43,15.65.87v87.47l109.33-72.83c-5.67-4.69-11.53-9.14-17.6-13.33v-100.86h55.21v-24.35h-55.21v-73.47h55.21v-24.78h-263.03v24.78h116.08v73.47h-116.08v24.35h116.08v74.78c-5.22-.44-10.87-.44-15.65-.44-27.39,0-50.87,5.65-70,17.83-22.61,13.91-33.48,33.91-33.48,60.43s10,45.65,30.87,58.69c9.29,6.04,20.08,10.32,32.28,13.02Z"/><path d="m1410.76,117.3l-28.69-2.17c-10,89.56-14.78,160.86-14.78,213.03,0,63.91,7.39,113.04,22.61,147.82l26.08-11.3c-13.04-30.87-20-76.52-20-136.08,0-51.74,5.22-122.6,14.78-211.29Z"/><path d="m1672.05,116.87c3.91,3.91,8.26,6.09,13.48,6.09s10-2.17,13.48-6.09c3.91-3.48,5.65-7.83,5.65-13.04s-1.74-9.56-5.65-13.48c-3.48-3.91-8.26-5.65-13.48-5.65s-9.56,1.74-13.48,5.65c-3.91,3.91-5.65,8.26-5.65,13.48s1.74,9.56,5.65,13.04Z"/><path d="m1701.36,381.64l-22.54,15.02c12.83,12.3,24.07,25.18,33.66,38.89l21.3-16.09c-9.92-13.84-20.73-26.42-32.43-37.82Z"/><path d="m1551.98,481.15c1.18.02,2.36.04,3.55.04,43.91,0,81.73-12.17,112.6-36.95v-40.47l-116.15,77.38Z"/><path d="m1748.56,89.91c-3.91-3.48-8.26-5.22-13.91-5.22-5.22,0-9.56,1.74-13.48,5.65-3.91,3.91-5.22,8.26-5.22,13.48s1.3,9.56,5.22,13.04c3.91,3.91,8.26,6.09,13.48,6.09,5.65,0,10-1.74,13.91-5.65,3.91-3.48,5.22-7.83,5.22-13.48s-1.3-10-5.22-13.91Z"/></g></svg>